<?xml version="1.0" encoding="UTF-8"?>
<svg version="1.1" xmlns="http://www.w3.org/2000/svg" width="225" height="225">
<path d="M0 0 C74.25 0 148.5 0 225 0 C225 74.25 225 148.5 225 225 C150.75 225 76.5 225 0 225 C0 150.75 0 76.5 0 0 Z " fill="#FEFEFE" transform="translate(0,0)"/>
<path d="M0 0 C5.11585445 3.18998553 8.22467134 6.27996535 10.41796875 11.90625 C11.20656485 16.65442862 10.92850618 19.90408392 8.73046875 24.21875 C3.16426828 30.68757757 3.16426828 30.68757757 -0.796875 31.18359375 C-4.37450721 31.23577963 -7.16667357 31.04470256 -10.58203125 29.90625 C-19.73665768 28.97707827 -26.86511105 30.48062852 -34.3359375 35.90625 C-56.06696742 54.28241995 -65.8064098 86.88104764 -74.58203125 112.90625 C-73.57785156 112.85984375 -72.57367188 112.8134375 -71.5390625 112.765625 C-58.58160872 112.34831057 -46.78338802 114.20027283 -36.58203125 122.90625 C-34.40435107 125.15170031 -32.51065903 127.43365029 -30.58203125 129.90625 C-31.29359375 129.62007812 -32.00515625 129.33390625 -32.73828125 129.0390625 C-33.67671875 128.66523438 -34.61515625 128.29140625 -35.58203125 127.90625 C-36.8659375 127.37644531 -36.8659375 127.37644531 -38.17578125 126.8359375 C-45.30766773 124.24775289 -51.71807775 123.50746856 -59.26953125 123.46875 C-60.13578125 123.4589209 -61.00203125 123.4490918 -61.89453125 123.43896484 C-64.48306749 123.47284364 -67.00683131 123.64470626 -69.58203125 123.90625 C-70.46375 123.98311035 -71.34546875 124.0599707 -72.25390625 124.13916016 C-75.1898353 124.66147987 -77.09202605 125.24944623 -79.58203125 126.90625 C-82.24428633 131.05468366 -83.67899388 135.4910191 -85.20703125 140.15625 C-85.89156155 142.08410836 -86.59178915 144.00573563 -87.29391479 145.92724609 C-87.97750647 147.79862825 -88.65094738 149.67370829 -89.32421875 151.54882812 C-96.0875562 169.60189811 -107.71688687 186.15562954 -125.2746582 194.80126953 C-131.62722716 197.65533469 -137.25278502 198.29336093 -143.8984375 196.1640625 C-148.91631849 193.92773248 -152.10092214 190.86846821 -154.58203125 185.90625 C-155.10319657 180.67750945 -155.17987183 176.2454129 -153.01953125 171.40625 C-149.99475444 168.30391481 -147.75627306 167.08895185 -143.58203125 165.90625 C-139.7326027 165.92747847 -136.23680602 166.68799174 -132.58203125 167.90625 C-125.33758135 168.62016186 -119.6264745 168.12621844 -113.58203125 163.90625 C-110.95703916 161.78265616 -110.95703916 161.78265616 -108.58203125 158.90625 C-107.98777344 158.25269531 -107.39351562 157.59914062 -106.78125 156.92578125 C-100.5049328 149.65012811 -96.63629314 141.5286943 -92.58203125 132.90625 C-91.92042623 131.57039783 -91.25686518 130.23546834 -90.58203125 128.90625 C-91.814375 128.95265625 -93.04671875 128.9990625 -94.31640625 129.046875 C-108.86400431 129.43408462 -120.16570824 127.71131916 -131.58203125 117.90625 C-134.07266872 115.35301123 -136.38109343 112.71208133 -138.58203125 109.90625 C-138.25203125 109.24625 -137.92203125 108.58625 -137.58203125 107.90625 C-137.03675781 108.30457031 -136.49148437 108.70289062 -135.9296875 109.11328125 C-130.66924706 112.80907787 -125.79046166 115.25620827 -119.58203125 116.90625 C-118.96787354 117.07898438 -118.35371582 117.25171875 -117.72094727 117.4296875 C-113.96164871 118.26728033 -110.16847481 118.09079434 -106.33203125 118.09375 C-105.10033203 118.11211914 -105.10033203 118.11211914 -103.84375 118.13085938 C-98.39546383 118.14381093 -93.83228276 117.33147922 -88.58203125 115.90625 C-87.26203125 115.90625 -85.94203125 115.90625 -84.58203125 115.90625 C-83.98470306 113.14360711 -83.58203125 110.74592231 -83.58203125 107.90625 C-84.38640625 108.73125 -85.19078125 109.55625 -86.01953125 110.40625 C-89.3798185 113.18525533 -92.14524593 113.71870533 -96.45703125 113.44921875 C-99.36346524 112.70658212 -101.10251279 111.21174965 -102.76953125 108.734375 C-105.0515386 103.59985847 -103.83406761 99.0912603 -101.95703125 94.09375 C-101.18952726 92.35372382 -100.39726457 90.62443163 -99.58203125 88.90625 C-99.2159375 88.10960938 -98.84984375 87.31296875 -98.47265625 86.4921875 C-91.3066799 72.20446923 -80.5345819 59.43212911 -69.58203125 47.90625 C-68.38726351 46.53756037 -67.19922853 45.16295024 -66.01953125 43.78125 C-61.26682513 38.32236349 -56.26239557 33.02820508 -50.58203125 28.53125 C-47.7683885 26.06931259 -45.74854372 23.65500702 -43.45703125 20.71875 C-33.9251892 8.84800217 -16.47448451 -6.97860161 0 0 Z " fill="#023562" transform="translate(184.58203125,12.09375)"/>
<path d="M0 0 C5.11585445 3.18998553 8.22467134 6.27996535 10.41796875 11.90625 C11.20656485 16.65442862 10.92850618 19.90408392 8.73046875 24.21875 C3.16426828 30.68757757 3.16426828 30.68757757 -0.796875 31.18359375 C-4.37450721 31.23577963 -7.16667357 31.04470256 -10.58203125 29.90625 C-19.73665768 28.97707827 -26.86511105 30.48062852 -34.3359375 35.90625 C-56.06696742 54.28241995 -65.8064098 86.88104764 -74.58203125 112.90625 C-73.92203125 113.23625 -73.26203125 113.56625 -72.58203125 113.90625 C-77.53203125 114.40125 -77.53203125 114.40125 -82.58203125 114.90625 C-76.88911401 96.75816951 -71.10950889 78.65994175 -64.26953125 60.90625 C-63.80321289 59.68220459 -63.33689453 58.45815918 -62.85644531 57.19702148 C-60.0773018 50.10590285 -56.87657639 43.46441981 -53.10864258 36.84375 C-51.49977987 33.93914841 -51.49977987 33.93914841 -50.54125977 30.75317383 C-49.63125714 28.05234904 -48.78414596 26.50040109 -46.96484375 24.35546875 C-46.44623779 23.74356689 -45.92763184 23.13166504 -45.39331055 22.5012207 C-44.55860229 21.55702271 -44.55860229 21.55702271 -43.70703125 20.59375 C-43.13057861 19.93656982 -42.55412598 19.27938965 -41.96020508 18.60229492 C-32.21135685 7.78074066 -15.61664813 -6.6152216 0 0 Z " fill="#E68314" transform="translate(184.58203125,12.09375)"/>
<path d="M0 0 C-6.96552169 24.35681498 -17.74550019 52.904282 -40.99511719 65.9765625 C-47.57583782 69.45610528 -53.51129617 71.49064247 -61 70 C-66.38700845 68.27397706 -69.85190632 65.78510239 -73 61 C-74.97699486 57.04601028 -74.42609061 52.30960219 -74 48 C-72.13343392 43.81889199 -70.66988464 42.39935431 -66.75 40.0625 C-61.34993459 38.53248147 -57.34618259 39.21793914 -52 41 C-44.7555501 41.71391186 -39.04444325 41.21996844 -33 37 C-30.37500791 34.87640616 -30.37500791 34.87640616 -28 32 C-27.40574219 31.34644531 -26.81148437 30.69289062 -26.19921875 30.01953125 C-19.44636186 22.19146219 -14.98815399 13.08388629 -10.98828125 3.6015625 C-10 2 -10 2 -6.5625 0.75 C-3 0 -3 0 0 0 Z " fill="#CF640A" transform="translate(104,139)"/>
<path d="M0 0 C0.495 0.99 0.495 0.99 1 2 C-0.11456145 4.25865402 -1.28527584 6.41000592 -2.5390625 8.58984375 C-6.99766707 16.6473053 -10.26263934 24.91315497 -13.375 33.5625 C-13.92882414 35.0767458 -14.48311285 36.59082176 -15.0378418 38.10473633 C-20.33261798 52.63222635 -25.23829366 67.29016617 -30 82 C-29.42862305 81.93143799 -28.85724609 81.86287598 -28.26855469 81.79223633 C-13.3714059 80.06105497 0.42059621 80.22558232 13.0546875 89.33984375 C16.11325875 91.95007022 18.52869467 94.83165983 21 98 C20.2884375 97.71382813 19.576875 97.42765625 18.84375 97.1328125 C17.9053125 96.75898438 16.966875 96.38515625 16 96 C15.1440625 95.64679688 14.288125 95.29359375 13.40625 94.9296875 C0.35842265 90.19458886 -13.77854856 90.24561331 -26.9375 94.5 C-39.56920438 98.58024666 -54.98981503 99.43987801 -67.46484375 94.32421875 C-75.4334847 90.16186238 -81.45883038 85.06407385 -87 78 C-86.505 77.01 -86.505 77.01 -86 76 C-85.45472656 76.39832031 -84.90945312 76.79664062 -84.34765625 77.20703125 C-79.08721581 80.90282787 -74.20843041 83.34995827 -68 85 C-67.38584229 85.17273438 -66.77168457 85.34546875 -66.13891602 85.5234375 C-62.37961746 86.36103033 -58.58644356 86.18454434 -54.75 86.1875 C-53.51830078 86.20586914 -53.51830078 86.20586914 -52.26171875 86.22460938 C-46.81343258 86.23756093 -42.25025151 85.42522922 -37 84 C-35.68 84 -34.36 84 -33 84 C-32.87625 83.319375 -32.7525 82.63875 -32.625 81.9375 C-27.077789 55.86560828 -15.5294304 29.52016204 -3.890625 5.61328125 C-3.57641602 4.96786377 -3.26220703 4.32244629 -2.93847656 3.6574707 C-2 2 -2 2 0 0 Z " fill="#062650" transform="translate(133,44)"/>
<path d="M0 0 C0.99 0.66 1.98 1.32 3 2 C2.59910156 2.53625 2.19820312 3.0725 1.78515625 3.625 C-13.19128703 24.27279482 -21.97382115 47.97461695 -30 72 C-29.34 72.33 -28.68 72.66 -28 73 C-32.95 73.495 -32.95 73.495 -38 74 C-36.31135194 68.76659599 -34.62063443 63.53386693 -32.92797852 58.30175781 C-32.35221044 56.52101842 -31.77701264 54.74009454 -31.20239258 52.95898438 C-30.37730657 50.40185845 -29.55018543 47.84539866 -28.72265625 45.2890625 C-28.46533218 44.49005524 -28.20800812 43.69104797 -27.94288635 42.86782837 C-26.11387171 37.22774341 -26.11387171 37.22774341 -25 35 C-24.34 35 -23.68 35 -23 35 C-22.85304688 34.45214844 -22.70609375 33.90429688 -22.5546875 33.33984375 C-20.1183022 24.72848192 -17.0092385 16.018477 -13 8 C-12.278125 8.0825 -11.55625 8.165 -10.8125 8.25 C-7.08364219 7.91854597 -5.6870757 6.54565066 -3 4 C-1.23676495 1.87396815 -1.23676495 1.87396815 0 0 Z " fill="#C7610C" transform="translate(140,53)"/>
<path d="M0 0 C1.66387233 1.64390586 3.27003465 3.31086453 4.828125 5.0546875 C1.51254358 5.0546875 -0.52416958 4.29350056 -3.609375 3.1171875 C-19.13695321 -2.77695443 -35.10727148 -1.8177622 -50.7890625 2.92578125 C-55.04133924 4.1694072 -58.75712748 4.26084314 -63.171875 4.0546875 C-61.851875 3.3946875 -60.531875 2.7346875 -59.171875 2.0546875 C-59.171875 0.7346875 -59.171875 -0.5853125 -59.171875 -1.9453125 C-60.491875 -2.6053125 -61.811875 -3.2653125 -63.171875 -3.9453125 C-59.36893469 -4.78882761 -55.56438576 -5.62464397 -51.75830078 -6.45385742 C-49.83931015 -6.87353212 -47.92159067 -7.29900588 -46.00390625 -7.72460938 C-28.88376841 -11.4444299 -13.96634131 -12.50942081 0 0 Z " fill="#0A3862" transform="translate(149.171875,135.9453125)"/>
<path d="M0 0 C0 3 0 3 -1 5 C-0.38125 5.0825 0.2375 5.165 0.875 5.25 C3 6 3 6 4.125 7.6875 C4.41375 8.450625 4.7025 9.21375 5 10 C5.3815625 10.87785156 5.763125 11.75570312 6.15625 12.66015625 C7.19381377 16.76717952 6.51910103 19.78845288 5.375 23.75 C5.20871094 24.42160156 5.04242188 25.09320313 4.87109375 25.78515625 C4.08746146 28.63940815 3.4723013 30.60791973 1.16015625 32.52734375 C-4.02371641 33.66160883 -9.637851 30.73556046 -14.125 28.3125 C-14.74375 27.879375 -15.3625 27.44625 -16 27 C-16.103125 27.639375 -16.20625 28.27875 -16.3125 28.9375 C-16.539375 29.618125 -16.76625 30.29875 -17 31 C-17.99 31.33 -18.98 31.66 -20 32 C-18.54049612 26.83560166 -16.22882877 22.73198155 -13.375 18.25 C-12.93494629 17.55132812 -12.49489258 16.85265625 -12.04150391 16.1328125 C-8.39393229 10.42928904 -4.41939168 5.13538251 0 0 Z " fill="#1183C4" transform="translate(105,74)"/>
<path d="M0 0 C3.33862045 0.90232985 4.74148623 1.63069461 6.75 4.5 C8.68474325 9.9172811 10.0250068 15.38053819 7.875 20.875 C2.65578358 26.79011194 2.65578358 26.79011194 -1.21875 27.28125 C-4.79397954 27.32768155 -7.58673392 27.13775536 -11 26 C-19.95739116 25.09084715 -27.44216336 26.44597262 -34.625 32.046875 C-36.81405392 33.97597876 -38.93218106 35.94217052 -41 38 C-41 35 -41 35 -39.3125 33.09765625 C-31.79077037 26.47802595 -25.00698002 21.80253974 -14.75 21.9375 C-13.85796875 21.94652344 -12.9659375 21.95554687 -12.046875 21.96484375 C-11.37140625 21.97644531 -10.6959375 21.98804687 -10 22 C-9.00652593 19.52950253 -8.02191748 17.05728013 -7.0703125 14.5703125 C-5.07994991 9.42168862 -2.8703851 4.71563267 0 0 Z " fill="#9C3A01" transform="translate(185,16)"/>
<path d="M0 0 C3.078125 0.94140625 3.078125 0.94140625 5.01171875 3.5234375 C5.50800781 4.58949219 6.00429688 5.65554687 6.515625 6.75390625 C7.02996094 7.81222656 7.54429688 8.87054688 8.07421875 9.9609375 C9.07838411 12.9421755 9.24583022 14.08778344 8.078125 16.94140625 C9.068125 17.27140625 10.058125 17.60140625 11.078125 17.94140625 C4.47796308 21.59186617 -1.38285116 23.09105211 -8.921875 21.94140625 C-11.86968699 20.86271164 -14.21590838 19.57519742 -16.921875 17.94140625 C-16.48750891 10.7743657 -9.97369826 5.88799423 -5.109375 1.19140625 C-2.921875 -0.05859375 -2.921875 -0.05859375 0 0 Z " fill="#AB4201" transform="translate(51.921875,187.05859375)"/>
<path d="M0 0 C0 3.6930434 -1.06145641 4.87654887 -3 8 C-4.33505128 10.57386309 -5.57666121 13.18978211 -6.8125 15.8125 C-7.1621582 16.55443604 -7.51181641 17.29637207 -7.87207031 18.06079102 C-10.80441515 24.38541697 -13.30649599 30.81982961 -15.6796875 37.37109375 C-17.34843819 41.95768957 -19.15389175 46.48246451 -21 51 C-21.21849609 50.08734375 -21.21849609 50.08734375 -21.44140625 49.15625 C-22.08844288 46.65859812 -22.99106806 44.37395751 -24 42 C-24.309375 41.2575 -24.61875 40.515 -24.9375 39.75 C-25.94982014 37.65738921 -25.94982014 37.65738921 -29 37 C-26.87514061 27.72788632 -21.67396686 21.21176532 -15.1875 14.4375 C-14.57310059 13.7870874 -13.95870117 13.1366748 -13.32568359 12.46655273 C-9.10871959 8.04457428 -4.78153326 3.81631692 0 0 Z " fill="#004478" transform="translate(133,42)"/>
<path d="M0 0 C0.99386719 0.00902344 1.98773438 0.01804687 3.01171875 0.02734375 C4.15060547 0.04474609 4.15060547 0.04474609 5.3125 0.0625 C4.9825 0.7225 4.6525 1.3825 4.3125 2.0625 C2.70375 2.1553125 2.70375 2.1553125 1.0625 2.25 C-2.9987457 3.12993657 -3.31478913 3.35969839 -5.5 6.5625 C-5.87769531 7.1915625 -6.25539062 7.820625 -6.64453125 8.46875 C-7.6875 10.0625 -7.6875 10.0625 -9.6875 11.0625 C-10.0175 12.0525 -10.3475 13.0425 -10.6875 14.0625 C-11.43 14.26875 -12.1725 14.475 -12.9375 14.6875 C-16.23245287 16.33497644 -16.36629095 17.23283431 -17.8125 20.5 C-19.3604835 23.57618446 -20.16781764 24.81311443 -23.30859375 26.3203125 C-28.23423745 27.66783256 -32.58072884 28.0625 -37.6875 28.0625 C-34.42937137 21.27473202 -31.39728771 16.19298088 -25.5625 11.4375 C-24.99354004 10.9645752 -24.42458008 10.49165039 -23.83837891 10.00439453 C-16.76470511 4.28487491 -9.25956365 -0.10893604 0 0 Z " fill="#F29114" transform="translate(176.6875,10.9375)"/>
<path d="M0 0 C2.72869407 0.03287583 5.2966618 0.56397771 8 1 C8 1.66 8 2.32 8 3 C9.32 3.33 10.64 3.66 12 4 C12 4.99 12 5.98 12 7 C12.66 7 13.32 7 14 7 C14.4125 8.093125 14.825 9.18625 15.25 10.3125 C16.62470313 13.54402963 17.9574985 15.13524101 21 17 C21.66 17.66 22.32 18.32 23 19 C20.64031256 21.09749995 19.45383006 21.96905704 16.25 22.1875 C15.13625 22.0946875 15.13625 22.0946875 14 22 C13.9175 20.989375 13.835 19.97875 13.75 18.9375 C13.16227462 14.62166584 11.24385159 11.69149778 9 8 C9 7.34 9 6.68 9 6 C6.167832 5.66551741 6.167832 5.66551741 3 6 C0.93716038 7.64368175 0.93716038 7.64368175 -1 10 C-2.17981705 10.9677762 -3.36800414 11.92540078 -4.5625 12.875 C-7.7298331 15.53936605 -9.43014846 18.12154325 -11 22 C-15.95044053 17.2092511 -15.95044053 17.2092511 -16.09765625 13.6171875 C-16.08605469 12.71226562 -16.07445313 11.80734375 -16.0625 10.875 C-16.05347656 9.96492187 -16.04445313 9.05484375 -16.03515625 8.1171875 C-16.02355469 7.41851562 -16.01195313 6.71984375 -16 6 C-15.67 6 -15.34 6 -15 6 C-15 7.65 -15 9.3 -15 11 C-14.01 11.33 -13.02 11.66 -12 12 C-8.84389168 10.3261611 -8.84389168 10.3261611 -8.125 7.5625 C-6.69735678 4.310646 -5.08716641 3.62076236 -2 2 C-1.34 1.34 -0.68 0.68 0 0 Z " fill="#B64B04" transform="translate(46,182)"/>
<path d="M0 0 C0 3.44258941 -0.50071992 4.02086098 -2.52734375 6.66796875 C-3.06842773 7.38903809 -3.60951172 8.11010742 -4.16699219 8.85302734 C-5.04339355 10.00859131 -5.04339355 10.00859131 -5.9375 11.1875 C-10.41511412 17.2292122 -14.58319013 23.30545897 -18.25 29.875 C-18.61988037 30.53395264 -18.98976074 31.19290527 -19.37084961 31.87182617 C-22.45118122 37.27986437 -22.45118122 37.27986437 -22.5625 43.25 C-22.2840625 44.11625 -22.2840625 44.11625 -22 45 C-21.02417969 45.13277344 -20.04835938 45.26554687 -19.04296875 45.40234375 C-17.77066406 45.57894531 -16.49835938 45.75554687 -15.1875 45.9375 C-13.92292969 46.11152344 -12.65835938 46.28554687 -11.35546875 46.46484375 C-8 47 -8 47 -5 48 C-6.51264477 51.85036851 -8.44727709 53.88348422 -12 56 C-15.15713458 56.67611956 -17.85095443 56.74028196 -21 56 C-24.97080258 52.75852851 -25.80479969 51.30133537 -26.5625 46.25 C-26.19970935 41.08268459 -24.19782514 36.63212515 -22 32 C-21.63390625 31.20335938 -21.2678125 30.40671875 -20.890625 29.5859375 C-15.70350185 19.24371048 -8.20750849 8.20750849 0 0 Z " fill="#08305F" transform="translate(107,69)"/>
<path d="M0 0 C4.77084677 0.42095707 7.79109592 2.59745516 11 6 C14.36702695 10.93830619 14.34553378 15.24110366 14 21 C13.34 21 12.68 21 12 21 C11.90203125 20.18015625 11.8040625 19.3603125 11.703125 18.515625 C11.55359375 17.43796875 11.4040625 16.3603125 11.25 15.25 C11.11078125 14.18265625 10.9715625 13.1153125 10.828125 12.015625 C9.88040737 8.56450232 8.74092996 7.23877485 6 5 C5.34 4.67 4.68 4.34 4 4 C3.7525 4.804375 3.505 5.60875 3.25 6.4375 C0.82845247 13.33891047 -2.260177 19.72243997 -6 26 C-8.97 25.67 -11.94 25.34 -15 25 C-12.3497017 20.3304268 -12.3497017 20.3304268 -10.51171875 18.59375 C-8.77437466 16.76213142 -8.05987502 15.14968754 -7.125 12.8125 C-5.18484107 8.22530252 -2.75295047 4.14070829 0 0 Z " fill="#D66603" transform="translate(181,12)"/>
<path d="M0 0 C0 0.33 0 0.66 0 1 C-1.16015625 0.98259766 -1.16015625 0.98259766 -2.34375 0.96484375 C-8.33936364 0.91290155 -14.07302983 1.08815844 -20 2 C-17.43332409 4.01667393 -14.93446886 5.58208437 -12 7 C-15.66229229 8.01650239 -19.33042242 9.0101504 -23 10 C-24.02996094 10.28617188 -25.05992188 10.57234375 -26.12109375 10.8671875 C-31.93447604 12.42235983 -36.9824452 13.34716662 -43 13 C-41.68 12.34 -40.36 11.68 -39 11 C-39 9.68 -39 8.36 -39 7 C-40.32 6.34 -41.64 5.68 -43 5 C-39.19705969 4.15648489 -35.39251076 3.32066853 -31.58642578 2.49145508 C-29.66743515 2.07178038 -27.74971567 1.64630662 -25.83203125 1.22070312 C-5.60245993 -3.17472729 -5.60245993 -3.17472729 0 0 Z " fill="#1A85C1" transform="translate(129,127)"/>
<path d="M0 0 C0 0.66 0 1.32 0 2 C2.06277107 1.85805236 4.12521031 1.71127784 6.1875 1.5625 C7.91033203 1.44068359 7.91033203 1.44068359 9.66796875 1.31640625 C12.51598171 1.04596188 15.21210482 0.62478253 18 0 C18 0.66 18 1.32 18 2 C10.9000804 4.02854846 5.02076875 4.5560455 -2.25 3.25 C-6.02156088 2.56427496 -6.02156088 2.56427496 -8.3125 4.9375 C-8.869375 5.618125 -9.42625 6.29875 -10 7 C-10.99 7 -11.98 7 -13 7 C-13.2475 7.94875 -13.495 8.8975 -13.75 9.875 C-15 13 -15 13 -17.125 14.375 C-18.053125 14.684375 -18.053125 14.684375 -19 15 C-19 14.34 -19 13.68 -19 13 C-19.66 13 -20.32 13 -21 13 C-22.0965084 9.16222059 -22.22572824 7.47967252 -20.5 3.8125 C-14.46138208 -2.98094516 -8.07274018 -2.69091339 0 0 Z " fill="#D86E0D" transform="translate(52,180)"/>
<path d="M0 0 C-0.45196245 1.60597325 -0.91182327 3.20972508 -1.375 4.8125 C-1.75785156 6.15248047 -1.75785156 6.15248047 -2.1484375 7.51953125 C-3 10 -3 10 -5 13 C-5.12375 12.360625 -5.2475 11.72125 -5.375 11.0625 C-5.58125 10.381875 -5.7875 9.70125 -6 9 C-6.66 8.67 -7.32 8.34 -8 8 C-8 7.01 -8 6.02 -8 5 C-8.4846875 6.02738281 -8.969375 7.05476562 -9.46875 8.11328125 C-15.59750886 20.87573828 -23.08678491 36.0788428 -36.6015625 42.35546875 C-41.62233428 43.70469895 -46.85141225 43.28254445 -52 43 C-52 42.67 -52 42.34 -52 42 C-51.29875 41.97421875 -50.5975 41.9484375 -49.875 41.921875 C-42.0333985 41.45308361 -36.52498414 39.99623652 -30.5 34.875 C-29.675 33.92625 -28.85 32.9775 -28 32 C-27.40574219 31.34644531 -26.81148437 30.69289062 -26.19921875 30.01953125 C-19.44636186 22.19146219 -14.98815399 13.08388629 -10.98828125 3.6015625 C-10 2 -10 2 -6.5625 0.75 C-3 0 -3 0 0 0 Z " fill="#B94E0F" transform="translate(104,139)"/>
<path d="M0 0 C1.875 0.125 1.875 0.125 4 1 C5.1875 3.8125 5.1875 3.8125 6 7 C6.2475 7.7425 6.495 8.485 6.75 9.25 C6.87375 10.11625 6.87375 10.11625 7 11 C6.34 11.66 5.68 12.32 5 13 C5.66 13.66 6.32 14.32 7 15 C3.08185342 16.95907329 -1.71920726 16.36124833 -6 16 C-9.6875 14.5 -9.6875 14.5 -12 13 C-11.01 12.34 -10.02 11.68 -9 11 C-7.9935725 9.33720673 -6.99414593 7.67016516 -6 6 C-3.9375 3.6875 -3.9375 3.6875 -2 2 C-1.34 2 -0.68 2 0 2 C0 1.34 0 0.68 0 0 Z " fill="#9D3C05" transform="translate(49,193)"/>
<path d="M0 0 C1.32 0 2.64 0 4 0 C5 3 5 3 3.875 5.4375 C1.72463704 8.37632938 0.15775509 10.14653506 -3 12 C-7.24455771 12.53804253 -10.94048223 12.35317259 -15 11 C-23.95739116 10.09084715 -31.44216336 11.44597262 -38.625 17.046875 C-40.81405392 18.97597876 -42.93218106 20.94217052 -45 23 C-45 20 -45 20 -43.3125 18.09765625 C-35.16333208 10.92583787 -28.10440552 6.44477972 -17 7 C-15.59712418 7.32515253 -14.20080257 7.67987657 -12.8125 8.0625 C-9.2409846 8.94074149 -8.27348319 9.0379337 -5 8 C-4.67 6.68 -4.34 5.36 -4 4 C-3.01 4 -2.02 4 -1 4 C-0.67 2.68 -0.34 1.36 0 0 Z " fill="#93390D" transform="translate(189,31)"/>
<path d="M0 0 C0.495 0.99 0.495 0.99 1 2 C-0.11456145 4.25865402 -1.28527584 6.41000592 -2.5390625 8.58984375 C-6.99793533 16.6477901 -10.25998681 24.91377173 -13.375 33.5625 C-13.93089396 35.07752557 -14.4873823 36.59233317 -15.04443359 38.10693359 C-17.80805218 45.66686804 -20.45219747 53.25928467 -22.953125 60.91015625 C-23.18266876 61.61070633 -23.41221252 62.31125641 -23.64871216 63.03303528 C-24.73394229 66.35636019 -25.80134412 69.68395952 -26.84130859 73.02172852 C-27.40325928 74.77827759 -27.40325928 74.77827759 -27.9765625 76.5703125 C-28.29705566 77.59914551 -28.61754883 78.62797852 -28.94775391 79.68798828 C-29.29499512 80.45095215 -29.64223633 81.21391602 -30 82 C-31.485 82.495 -31.485 82.495 -33 83 C-31.07196509 75.58998173 -28.85805982 68.3451906 -26.3125 61.125 C-25.96509766 60.13540283 -25.61769531 59.14580566 -25.25976562 58.1262207 C-18.94838952 40.26531062 -12.18821951 22.65709251 -3.890625 5.61328125 C-3.57641602 4.96786377 -3.26220703 4.32244629 -2.93847656 3.6574707 C-2 2 -2 2 0 0 Z " fill="#3C0B03" transform="translate(133,44)"/>
<path d="M0 0 C0.99 0 1.98 0 3 0 C1.54923176 3.79431694 -0.15431859 7.38246443 -2 11 C-2.474375 12.010625 -2.94875 13.02125 -3.4375 14.0625 C-5.0162559 17.0305611 -6.82289917 19.44753695 -9 22 C-8.34 22.99 -7.68 23.98 -7 25 C-10.96 25.99 -14.92 26.98 -19 28 C-19 24.85331714 -18.47264871 23.68541824 -17 21 C-16.67 20.34 -16.34 19.68 -16 19 C-15.34 19 -14.68 19 -14 19 C-14 18.34 -14 17.68 -14 17 C-13.01 17 -12.02 17 -11 17 C-10.67 16.01 -10.34 15.02 -10 14 C-8.66666667 13.33333333 -7.33333333 12.66666667 -6 12 C-5.61781233 10.34385343 -5.28604898 8.67542976 -5 7 C-4.67 6.34 -4.34 5.68 -4 5 C-3.34 5 -2.68 5 -2 5 C-1.855625 4.360625 -1.71125 3.72125 -1.5625 3.0625 C-1 1 -1 1 0 0 Z " fill="#E57704" transform="translate(177,13)"/>
<path d="M0 0 C0.99 0.33 1.98 0.66 3 1 C2.34 2.32 1.68 3.64 1 5 C0.34 5 -0.32 5 -1 5 C-1.268125 6.093125 -1.53625 7.18625 -1.8125 8.3125 C-2.90170047 11.6947541 -3.33655569 12.89143992 -6 15 C-6.66 15.66 -7.32 16.32 -8 17 C-8.99 17 -9.98 17 -11 17 C-11.12375 17.804375 -11.2475 18.60875 -11.375 19.4375 C-11.58125 20.283125 -11.7875 21.12875 -12 22 C-12.66 22.33 -13.32 22.66 -14 23 C-14.45375 23.495 -14.9075 23.99 -15.375 24.5 C-17.22951249 26.21185769 -18.54524501 26.57676638 -21 27 C-20.41374187 23.59970284 -19.39090089 22.39090089 -17 20 C-16.35837795 18.82139812 -15.73498822 17.63278056 -15.125 16.4375 C-13.27115658 13.01612103 -11.68183791 12.29361873 -8 11 C-7.34786708 8.97536745 -7.34786708 8.97536745 -7 7 C-6.01 6.67 -5.02 6.34 -4 6 C-2.60287726 4.04402816 -1.26220093 2.04563599 0 0 Z " fill="#ED8407" transform="translate(174,13)"/>
<path d="M0 0 C0.33 0.66 0.66 1.32 1 2 C0.41088867 3.70825195 0.41088867 3.70825195 -0.58203125 5.73828125 C-0.93716797 6.47626953 -1.29230469 7.21425781 -1.65820312 7.97460938 C-2.03912109 8.74611328 -2.42003906 9.51761719 -2.8125 10.3125 C-3.549437 11.8288154 -4.28514632 13.34572818 -5.01953125 14.86328125 C-5.36580566 15.57693848 -5.71208008 16.2905957 -6.06884766 17.02587891 C-7.14794968 19.31366574 -8.10724491 21.63349048 -9 24 C-9.33 23.34 -9.66 22.68 -10 22 C-10.66 22 -11.32 22 -12 22 C-12 21.34 -12 20.68 -12 20 C-13.65 20 -15.3 20 -17 20 C-17 19.34 -17 18.68 -17 18 C-16.34 18 -15.68 18 -15 18 C-14.731875 17.4225 -14.46375 16.845 -14.1875 16.25 C-12.97070811 13.94449957 -11.69666121 11.97943808 -10 10 C-9.34 10 -8.68 10 -8 10 C-7.79375 9.46375 -7.5875 8.9275 -7.375 8.375 C-5.42003056 4.9982346 -2.81776305 2.69525161 0 0 Z " fill="#00315D" transform="translate(129,48)"/>
<path d="M0 0 C4.875 1.75 4.875 1.75 6 4 C5.01 4.495 5.01 4.495 4 5 C2.86649466 7.01669827 2.86649466 7.01669827 2 9 C1.34 9 0.68 9 0 9 C-2.10687759 13.86202522 -3.52085957 18.92161787 -5 24 C-7.64 23.67 -10.28 23.34 -13 23 C-12.01 22.67 -11.02 22.34 -10 22 C-8.85668215 19.70051337 -8.85668215 19.70051337 -8 17 C-5.71657607 11.03239627 -3.32689693 5.46561638 0 0 Z " fill="#AC4201" transform="translate(185,16)"/>
<path d="M0 0 C0 3 0 3 -1 5 C-0.38125 5.0825 0.2375 5.165 0.875 5.25 C3 6 3 6 4.125 7.6875 C4.41375 8.450625 4.7025 9.21375 5 10 C5.4125 10.886875 5.825 11.77375 6.25 12.6875 C7.26647293 17.17692209 6.25833145 20.6442373 5 25 C4.71125 24.39027344 4.4225 23.78054687 4.125 23.15234375 C3.01332766 20.84719797 3.01332766 20.84719797 1 18.5625 C-0.93700009 16.08071863 -1.98570439 13.95836218 -3 11 C-4.32 11.33 -5.64 11.66 -7 12 C-6.360625 11.278125 -5.72125 10.55625 -5.0625 9.8125 C-2.97721831 6.96893406 -2.54964541 5.38948 -2 2 C-1.34 1.34 -0.68 0.68 0 0 Z " fill="#0268A6" transform="translate(105,74)"/>
<path d="M0 0 C2.87898661 0.67894469 5.64340175 1.5315084 8.4375 2.5 C11.60673369 3.57210051 14.68814809 4.46583034 18 5 C17.0421366 7.61235473 16.20631102 8.84995562 13.9375 10.5 C9.37825457 11.27604178 5.89527734 9.31236501 2 7 C0.20703125 5.4921875 0.20703125 5.4921875 -1 4 C-0.6875 1.8125 -0.6875 1.8125 0 0 Z " fill="#004377" transform="translate(89,101)"/>
<path d="M0 0 C4.42326378 1.35155282 6.40412982 3.19890438 9 7 C9.96070434 9.88211302 10.10581883 11.69850044 10.0625 14.6875 C10.05347656 15.49574219 10.04445312 16.30398437 10.03515625 17.13671875 C10.02355469 17.75160156 10.01195312 18.36648437 10 19 C9.34 19 8.68 19 8 19 C7.90203125 18.18015625 7.8040625 17.3603125 7.703125 16.515625 C7.55359375 15.43796875 7.4040625 14.3603125 7.25 13.25 C7.11078125 12.18265625 6.9715625 11.1153125 6.828125 10.015625 C5.88040737 6.56450232 4.74092996 5.23877485 2 3 C1.34 2.67 0.68 2.34 0 2 C-0.2475 2.804375 -0.495 3.60875 -0.75 4.4375 C-3.17154753 11.33891047 -6.260177 17.72243997 -10 24 C-10.66 24 -11.32 24 -12 24 C-11.36949114 19.12788607 -9.32162911 15.19739922 -7.125 10.875 C-6.77308594 10.15957031 -6.42117187 9.44414062 -6.05859375 8.70703125 C-5.71183594 8.01738281 -5.36507812 7.32773437 -5.0078125 6.6171875 C-4.69473145 5.99440918 -4.38165039 5.37163086 -4.05908203 4.72998047 C-2.91251554 2.85709662 -1.60588926 1.48837126 0 0 Z " fill="#C96515" transform="translate(185,14)"/>
<path d="M0 0 C2.625 0.375 2.625 0.375 5 1 C4.67 1.66 4.34 2.32 4 3 C3.34 3 2.68 3 2 3 C0.5412312 4.29078411 0.5412312 4.29078411 -1 6 C-1.8971875 6.86625 -1.8971875 6.86625 -2.8125 7.75 C-5.20290314 10.20870038 -7.3162348 12.81978709 -9.4375 15.51171875 C-11.25178245 17.23982278 -12.55682616 17.60509044 -15 18 C-16.26237731 15.47524538 -16.09856404 13.68799534 -16.0625 10.875 C-16.05347656 9.96492187 -16.04445313 9.05484375 -16.03515625 8.1171875 C-16.02355469 7.41851562 -16.01195313 6.71984375 -16 6 C-15.67 6 -15.34 6 -15 6 C-15 7.65 -15 9.3 -15 11 C-14.01 11.33 -13.02 11.66 -12 12 C-8.84389168 10.3261611 -8.84389168 10.3261611 -8.125 7.5625 C-6.69735678 4.310646 -5.08716641 3.62076236 -2 2 C-1.34 1.34 -0.68 0.68 0 0 Z " fill="#C85A03" transform="translate(46,182)"/>
<path d="M0 0 C0 3 0 3 -2.37109375 5.62890625 C-3.38586139 6.61441454 -4.40835389 7.59201649 -5.4375 8.5625 C-9.17489401 11.92358607 -9.17489401 11.92358607 -12 16 C-12.66 16 -13.32 16 -14 16 C-14.268125 16.5775 -14.53625 17.155 -14.8125 17.75 C-16.02929189 20.05550043 -17.30333879 22.02056192 -19 24 C-19.66 24 -20.32 24 -21 24 C-21.2475 24.5775 -21.495 25.155 -21.75 25.75 C-23.16683317 28.3002997 -24.87627537 30.01785701 -27 32 C-23.5228699 19.79456372 -11.2921993 9.3064873 -2 1 C-1.34 0.67 -0.68 0.34 0 0 Z " fill="#3173A3" transform="translate(133,42)"/>
<path d="M0 0 C0 0.66 0 1.32 0 2 C0.66 2 1.32 2 2 2 C1.125 8.75 1.125 8.75 0 11 C-3.99455527 10.38545304 -6.74466336 8.29353263 -10 6 C-5.17857143 -1.55357143 -5.17857143 -1.55357143 0 0 Z " fill="#003E70" transform="translate(117,68)"/>
<path d="M0 0 C0 0.66 0 1.32 0 2 C-0.52207031 2.1959375 -1.04414063 2.391875 -1.58203125 2.59375 C-10.92243916 6.3888019 -18.96269564 11.7579058 -24.65234375 20.16796875 C-26.72324768 22.98319757 -29.2306067 24.88998605 -32 27 C-28.74202623 20.21255465 -25.71008183 15.12986123 -19.875 10.375 C-19.30604004 9.90280029 -18.73708008 9.43060059 -18.15087891 8.9440918 C-12.92742793 4.7257129 -6.94371019 0 0 0 Z " fill="#F1AC42" transform="translate(171,12)"/>
<path d="M0 0 C0.90621094 0.55429688 1.81242187 1.10859375 2.74609375 1.6796875 C12.80988013 7.7171283 20.48589395 10.07982054 32.30078125 10.55859375 C35.32311968 11.05284012 36.73844624 11.98555187 39 14 C29.27231731 14.58172189 21.19404758 13.16876608 12 10 C11.25363281 9.74992188 10.50726563 9.49984375 9.73828125 9.2421875 C5.57910154 7.67234527 2.8552617 5.37440019 0 2 C0 1.34 0 0.68 0 0 Z " fill="#42759B" transform="translate(46,120)"/>
<path d="M0 0 C0 0.33 0 0.66 0 1 C-1.16015625 0.98259766 -1.16015625 0.98259766 -2.34375 0.96484375 C-8.33936364 0.91290155 -14.07302983 1.08815844 -20 2 C-17.43332409 4.01667393 -14.93446886 5.58208437 -12 7 C-13.4562672 7.36256858 -14.91511185 7.71479793 -16.375 8.0625 C-17.18710938 8.25972656 -17.99921875 8.45695313 -18.8359375 8.66015625 C-21 9 -21 9 -23 8 C-23 7.34 -23 6.68 -23 6 C-24.65 5.67 -26.3 5.34 -28 5 C-28 3 -28 3 -26 1 C-22.61729984 0.12935561 -19.14412886 -0.26380304 -15.6875 -0.75 C-14.73681641 -0.90082031 -13.78613281 -1.05164063 -12.80664062 -1.20703125 C-4.16499486 -2.45104175 -4.16499486 -2.45104175 0 0 Z " fill="#13699F" transform="translate(129,127)"/>
<path d="M0 0 C0.556875 0.6496875 0.556875 0.6496875 1.125 1.3125 C5.91041132 5.61937019 10.82178444 6.46739521 17 7 C16.67 7.99 16.34 8.98 16 10 C11.33569985 11.55476672 7.50012317 9.65530008 3 8 C-0.125 6.3125 -0.125 6.3125 -2 5 C-2.103125 5.639375 -2.20625 6.27875 -2.3125 6.9375 C-2.539375 7.618125 -2.76625 8.29875 -3 9 C-3.99 9.33 -4.98 9.66 -6 10 C-4.79157144 5.56909529 -3.48331435 3.01887244 0 0 Z " fill="#0267A6" transform="translate(91,96)"/>
<path d="M0 0 C0.33 0 0.66 0 1 0 C0.44255984 7.69844079 -1.93371727 14.64841692 -4.375 21.9375 C-4.77460937 23.18080078 -5.17421875 24.42410156 -5.5859375 25.70507812 C-5.9778125 26.88392578 -6.3696875 28.06277344 -6.7734375 29.27734375 C-7.12841309 30.35234131 -7.48338867 31.42733887 -7.84912109 32.53491211 C-8.22891113 33.34839111 -8.60870117 34.16187012 -9 35 C-10.485 35.495 -10.485 35.495 -12 36 C-9.98154916 28.17392436 -7.56738623 20.55606543 -4.875 12.9375 C-4.51535156 11.90689453 -4.15570313 10.87628906 -3.78515625 9.81445312 C-1.15137363 2.30274725 -1.15137363 2.30274725 0 0 Z " fill="#160A0D" transform="translate(112,91)"/>
<path d="M0 0 C-0.45196245 1.60597325 -0.91182327 3.20972508 -1.375 4.8125 C-1.63023438 5.70582031 -1.88546875 6.59914062 -2.1484375 7.51953125 C-3 10 -3 10 -5 13 C-5.12375 12.360625 -5.2475 11.72125 -5.375 11.0625 C-5.58125 10.381875 -5.7875 9.70125 -6 9 C-6.66 8.67 -7.32 8.34 -8 8 C-8 7.01 -8 6.02 -8 5 C-8.66 5.66 -9.32 6.32 -10 7 C-10.33 6.01 -10.66 5.02 -11 4 C-10 2 -10 2 -6.625 0.875 C-3 0 -3 0 0 0 Z " fill="#973B07" transform="translate(104,139)"/>
<path d="M0 0 C-0.33 0.99 -0.66 1.98 -1 3 C-3.5625 4.1875 -3.5625 4.1875 -6 5 C-6 5.66 -6 6.32 -6 7 C-6.7425 7.2475 -7.485 7.495 -8.25 7.75 C-11.24537757 9.11153526 -12.76455189 10.62032943 -15 13 C-16.31558703 14.02323436 -17.64377755 15.03126968 -19 16 C-18.73510963 12.43659386 -18.17907059 11.17819565 -15.6015625 8.61328125 C-14.12816406 7.47439453 -14.12816406 7.47439453 -12.625 6.3125 C-11.64789063 5.54550781 -10.67078125 4.77851563 -9.6640625 3.98828125 C-4.32023576 0 -4.32023576 0 0 0 Z " fill="#F89B11" transform="translate(167,16)"/>
<path d="M0 0 C1.32 0 2.64 0 4 0 C4.33 0.99 4.66 1.98 5 3 C3.41866551 6.16266898 1.61885488 8.63055987 -1 11 C-1.99 10.67 -2.98 10.34 -4 10 C-4.75 8.0625 -4.75 8.0625 -5 6 C-4.67 5.34 -4.34 4.68 -4 4 C-3.01 4 -2.02 4 -1 4 C-0.67 2.68 -0.34 1.36 0 0 Z " fill="#8B3104" transform="translate(189,31)"/>
<path d="M0 0 C-0.8353125 0.556875 -0.8353125 0.556875 -1.6875 1.125 C-4.58567739 3.47487356 -6.66991817 6.08739771 -9 9 C-9.66 8.67 -10.32 8.34 -11 8 C-11.33 9.65 -11.66 11.3 -12 13 C-12.33 13 -12.66 13 -13 13 C-14.14480053 8.99319816 -14.26589853 7.49381156 -12.25 3.75 C-8.18523274 -1.21804888 -6.07682998 -1.14657169 0 0 Z " fill="#E28622" transform="translate(44,180)"/>
<path d="M0 0 C0 0.66 0 1.32 0 2 C1.5811292 2.50692692 3.16501383 3.00526443 4.75 3.5 C6.07257813 3.91765625 6.07257813 3.91765625 7.421875 4.34375 C10.20267529 5.16445285 10.20267529 5.16445285 14 5 C14.99 5 15.98 5 17 5 C16.34 6.32 15.68 7.64 15 9 C9.73157828 8.55162368 5.75994471 7.17053228 1.015625 4.83984375 C-1.09760617 3.80769231 -1.09760617 3.80769231 -4 4 C-4.33 3.01 -4.66 2.02 -5 1 C-3 0 -3 0 0 0 Z " fill="#004072" transform="translate(89,105)"/>
<path d="M0 0 C-3.05736357 3.1559882 -5.30548166 4.33088346 -9.625 4.5 C-11.9140625 4.53125 -11.9140625 4.53125 -14 4 C-15.7734375 1.96875 -15.7734375 1.96875 -17 0 C-14.9174133 -0.19561869 -12.83388144 -0.38119313 -10.75 -0.5625 C-9.58984375 -0.66691406 -8.4296875 -0.77132812 -7.234375 -0.87890625 C-4.48128523 -0.98198087 -2.580018 -0.86213473 0 0 Z " fill="#031C3A" transform="translate(100,121)"/>
<path d="M0 0 C2.64 0.33 5.28 0.66 8 1 C7.67 2.98 7.34 4.96 7 7 C2.59085217 8.10228696 -1.48382401 8.07654536 -6 8 C-5.401875 7.7525 -4.80375 7.505 -4.1875 7.25 C-1.71352479 5.83629988 -0.56629745 4.34944617 1 2 C0.67 1.34 0.34 0.68 0 0 Z " fill="#01467A" transform="translate(84,132)"/>
<path d="M0 0 C3.42832374 2.28554916 3.58901011 3.29615153 5 7 C5.804375 7.9590625 5.804375 7.9590625 6.625 8.9375 C8.51935859 11.77903789 8.42705614 13.65472693 8 17 C6.5 18.875 6.5 18.875 5 20 C4.01 19.67 3.02 19.34 2 19 C2 18.34 2 17.68 2 17 C2.99 17 3.98 17 5 17 C5.33 16.01 5.66 15.02 6 14 C5.34 13.01 4.68 12.02 4 11 C2 8 2 8 1 5.9375 C0.04074983 3.83805638 0.04074983 3.83805638 -2 2 C-1.34 1.34 -0.68 0.68 0 0 Z " fill="#0979BB" transform="translate(101,84)"/>
<path d="M0 0 C1.32 0.33 2.64 0.66 4 1 C4.34615998 6.65394631 3.43425238 10.03006806 1 15 C0.01 13.68 -0.98 12.36 -2 11 C-1.34 10.67 -0.68 10.34 0 10 C0.08226668 6.95613276 -0.02391783 4.92824652 -1 2 C-0.67 1.34 -0.34 0.68 0 0 Z " fill="#AB4B10" transform="translate(95,147)"/>
<path d="M0 0 C0.68449219 0.34804687 1.36898437 0.69609375 2.07421875 1.0546875 C5.71208395 2.23007252 8.07082547 1.80530446 11.8125 1.125 C13.55466797 0.81949219 13.55466797 0.81949219 15.33203125 0.5078125 C16.21246094 0.34023437 17.09289062 0.17265625 18 0 C17.67 0.99 17.34 1.98 17 3 C4.51480638 5.48063781 4.51480638 5.48063781 -2 4 C-2 3.34 -2 2.68 -2 2 C-1.34 2 -0.68 2 0 2 C0 1.34 0 0.68 0 0 Z " fill="#012447" transform="translate(84,117)"/>
<path d="M0 0 C0.66 0 1.32 0 2 0 C2 0.66 2 1.32 2 2 C2.99 2.33 3.98 2.66 5 3 C7.15823513 4.65279365 7.91392045 5.48074592 8.36328125 8.19140625 C8.34652344 8.97386719 8.32976562 9.75632812 8.3125 10.5625 C8.30863281 11.34753906 8.30476563 12.13257812 8.30078125 12.94140625 C8 15 8 15 6 17 C5.87625 16.29875 5.7525 15.5975 5.625 14.875 C4.80309501 11.09423704 3.73352329 7.46704658 2 4 C1.01 3.67 0.02 3.34 -1 3 C-0.67 2.01 -0.34 1.02 0 0 Z " fill="#00518A" transform="translate(105,76)"/>
<path d="M0 0 C3.63 0 7.26 0 11 0 C10.67 0.99 10.34 1.98 10 3 C9.34 3 8.68 3 8 3 C8.33 3.99 8.66 4.98 9 6 C8.67 6.66 8.34 7.32 8 8 C5.36 8 2.72 8 0 8 C1.32 7.34 2.64 6.68 4 6 C4 4.68 4 3.36 4 2 C2.68 1.34 1.36 0.68 0 0 Z " fill="#0D6DA6" transform="translate(86,132)"/>
<path d="M0 0 C2.87898661 0.67894469 5.64340175 1.5315084 8.4375 2.5 C11.60673369 3.57210051 14.68814809 4.46583034 18 5 C17.34 6.32 16.68 7.64 16 9 C16 8.34 16 7.68 16 7 C14.2675 6.87625 14.2675 6.87625 12.5 6.75 C7.77872502 6.18513317 4.0893261 4.33831147 0 2 C0 1.34 0 0.68 0 0 Z " fill="#01568F" transform="translate(89,101)"/>
<path d="M0 0 C2.27159689 1.29033905 4.54229625 2.58221402 6.8125 3.875 C7.45509766 4.23980469 8.09769531 4.60460937 8.75976562 4.98046875 C11.56768798 6.58083901 14.30964298 8.20642866 17 10 C11.02954814 9.39077022 5.32052212 8.47023323 1.0625 3.9375 C0 2 0 2 0 0 Z " fill="#1C5686" transform="translate(46,120)"/>
<path d="M0 0 C0.66 0.33 1.32 0.66 2 1 C1.24360531 3.48444265 0.47090472 5.96158192 -0.3125 8.4375 C-0.52583984 9.14455078 -0.73917969 9.85160156 -0.95898438 10.58007812 C-1.54830977 12.41842153 -2.2670418 14.21405959 -3 16 C-3.99 16.33 -4.98 16.66 -6 17 C-4.49829538 11.01448228 -3.05773837 5.38744379 0 0 Z " fill="#230606" transform="translate(106,110)"/>
<path d="M0 0 C1.35281097 3.07457039 0.92902928 4.19516948 -0.25 7.4375 C-1.70718759 10.4039176 -3.26555366 13.19184879 -5 16 C-5 16.33 -5 16.66 -5 17 C-6.65 17 -8.3 17 -10 17 C-9.01 16.67 -8.02 16.34 -7 16 C-5.86572049 13.71569742 -5.86572049 13.71569742 -5 11 C-4.31378206 9.24949688 -3.62629629 7.49949019 -2.9375 5.75 C-2.42509766 4.44289063 -2.42509766 4.44289063 -1.90234375 3.109375 C-1 1 -1 1 0 0 Z " fill="#B94C01" transform="translate(182,22)"/>
<path d="M0 0 C0.66 0 1.32 0 2 0 C1.48474397 5.28137429 -0.25477117 8.57221156 -3 13 C-3.99 12.67 -4.98 12.34 -6 12 C-4.02 8.04 -2.04 4.08 0 0 Z " fill="#A44816" transform="translate(92,145)"/>
<path d="M0 0 C0 3 0 3 -1 5 C-0.38125 5.0825 0.2375 5.165 0.875 5.25 C3 6 3 6 4.25 8.0625 C4.4975 8.701875 4.745 9.34125 5 10 C4.01 11.485 4.01 11.485 3 13 C2 12 2 12 1.9375 9.4375 C1.958125 8.633125 1.97875 7.82875 2 7 C1.01 7.33 0.02 7.66 -1 8 C-1.66 7.67 -2.32 7.34 -3 7 C-2.25 2.25 -2.25 2.25 0 0 Z " fill="#106CA5" transform="translate(105,74)"/>
<path d="M0 0 C0.66 0.99 1.32 1.98 2 3 C1.401875 3.556875 0.80375 4.11375 0.1875 4.6875 C-2.08939299 6.91774529 -2.08939299 6.91774529 -3.5625 9.6875 C-5 12 -5 12 -8 13 C-6.40956621 7.91061189 -3.2553049 4.12543357 0 0 Z " fill="#3092CA" transform="translate(101,79)"/>
<path d="M0 0 C-0.33 1.65 -0.66 3.3 -1 5 C-1.66 4.34 -2.32 3.68 -3 3 C-3.99 3.33 -4.98 3.66 -6 4 C-6.66 3.67 -7.32 3.34 -8 3 C-8.66 4.32 -9.32 5.64 -10 7 C-10.33 6.01 -10.66 5.02 -11 4 C-10 2 -10 2 -6.625 0.875 C-3 0 -3 0 0 0 Z " fill="#5A1C06" transform="translate(104,139)"/>
<path d="M0 0 C0.33 0.66 0.66 1.32 1 2 C3.01669827 3.13350534 3.01669827 3.13350534 5 4 C5 4.99 5 5.98 5 7 C3.35 6.01 1.7 5.02 0 4 C-0.103125 4.639375 -0.20625 5.27875 -0.3125 5.9375 C-0.539375 6.618125 -0.76625 7.29875 -1 8 C-1.99 8.33 -2.98 8.66 -4 9 C-2.94124926 5.59687262 -1.99097846 2.98646769 0 0 Z " fill="#1973AC" transform="translate(89,97)"/>
<path d="M0 0 C0.66 0.33 1.32 0.66 2 1 C1.34 1.66 0.68 2.32 0 3 C0 3.99 0 4.98 0 6 C-1.53125 7.60546875 -1.53125 7.60546875 -3.5 9.1875 C-4.1496875 9.71730469 -4.799375 10.24710938 -5.46875 10.79296875 C-5.9740625 11.19128906 -6.479375 11.58960938 -7 12 C-2.15217391 2.15217391 -2.15217391 2.15217391 0 0 Z " fill="#EDA03A" transform="translate(146,27)"/>
<path d="M0 0 C-0.99 0.33 -1.98 0.66 -3 1 C-3 1.66 -3 2.32 -3 3 C-2.01 3.33 -1.02 3.66 0 4 C-2.31 4.33 -4.62 4.66 -7 5 C-7 4.34 -7 3.68 -7 3 C-8.65 3 -10.3 3 -12 3 C-7.85930434 0.85826087 -4.68855996 -0.12671784 0 0 Z " fill="#288AC2" transform="translate(104,129)"/>
<path d="M0 0 C1.75140143 0.45294865 3.50107344 0.91258748 5.25 1.375 C6.71179688 1.75785156 6.71179688 1.75785156 8.203125 2.1484375 C10.65837303 2.89598509 12.75617405 3.77123817 15 5 C14.01 5.66 13.02 6.32 12 7 C8.04 5.02 4.08 3.04 0 1 C0 0.67 0 0.34 0 0 Z " fill="#004B82" transform="translate(90,104)"/>
<path d="M0 0 C0.33 0.66 0.66 1.32 1 2 C0.67 2.94875 0.34 3.8975 0 4.875 C-1.01793354 8.05604231 -0.97511044 8.96632308 0 12 C-0.33 12.66 -0.66 13.32 -1 14 C-1.66 14 -2.32 14 -3 14 C-4.26332183 9.78892722 -4.00441956 7.4543291 -2.0625 3.625 C-1.39025121 2.40811576 -0.70765749 1.1966397 0 0 Z " fill="#DE8424" transform="translate(96,143)"/>
<path d="M0 0 C1.98 0.495 1.98 0.495 4 1 C4 2.32 4 3.64 4 5 C3.01 5.33 2.02 5.66 1 6 C-0.0625 4.125 -0.0625 4.125 -1 2 C-0.67 1.34 -0.34 0.68 0 0 Z " fill="#C65601" transform="translate(95,147)"/>
<path d="M0 0 C2.375 1.3125 2.375 1.3125 4.375 4.3125 C0.5686543 3.64079194 -2.97706816 2.58503436 -6.625 1.3125 C-4.02660435 -0.41976377 -3.08769483 -0.80868198 0 0 Z " fill="#004174" transform="translate(111.625,128.6875)"/>
<path d="M0 0 C6.47556391 0.61090226 6.47556391 0.61090226 8.9375 2.4375 C10 4 10 4 10 6 C6.40992874 4.66654496 3.20429093 3.1056769 0 1 C0 0.67 0 0.34 0 0 Z " fill="#097ABC" transform="translate(92,97)"/>
<path d="M0 0 C0.99 0.33 1.98 0.66 3 1 C1.02 3.97 1.02 3.97 -1 7 C-1.66 6.67 -2.32 6.34 -3 6 C-1.125 1.125 -1.125 1.125 0 0 Z " fill="#AF4C0F" transform="translate(87,174)"/>
<path d="M0 0 C1.875 1.5625 1.875 1.5625 3 3 C1.741875 2.87625 0.48375 2.7525 -0.8125 2.625 C-1.87404297 2.52058594 -1.87404297 2.52058594 -2.95703125 2.4140625 C-5 2 -5 2 -8 0 C-5.06317146 -1.46841427 -3.13175678 -0.76696084 0 0 Z " fill="#3B7AA7" transform="translate(69,130)"/>
<path d="M0 0 C0.66 0.33 1.32 0.66 2 1 C0.515 4.465 0.515 4.465 -1 8 C-1.66 8 -2.32 8 -3 8 C-1.125 1.125 -1.125 1.125 0 0 Z " fill="#5C2214" transform="translate(103,119)"/>
<path d="M0 0 C1.32 0.66 2.64 1.32 4 2 C2.71034824 3.37562854 1.37310707 4.70766393 0 6 C-0.66 6 -1.32 6 -2 6 C-1.49396008 3.83125748 -1.00016187 2.00032373 0 0 Z " fill="#B74A01" transform="translate(185,16)"/>
</svg>
